PathFileType	4	(X/Y/Z)	Patient4_TMGait_0pt7_01_left_32.trc.trc
DataRate	CameraRate	NumFrames	NumMarkers	Units	OrigDataRate	OrigDataStartFrame	OrigNumFrames
84.848484848485	84.848484848485	4	33	mm	84.848484848485	18	       141
Frame#	Time	Sacral			L.Shoulder			Chest			R.Shoulder			Neck			R.ASIS			L.ASIS			R.Thigh.Superior			R.Thigh.Lateral			R.Thigh.Inferior			R.Patella			L.Thigh.Superior			L.Thigh.Lateral			L.Thigh.Inferior			L.Patella			L.Shank.Superior			L.Shank.Lateral			L.Shank.Inferior			R.Shank.Superior			R.Shank.Lateral			R.Shank.Inferior			R.Heel			R.Midfoot.Superior			R.Midfoot.Lateral			R.Toe			L.Heel			L.Midfoot.Lateral			L.Midfoot.Superior			L.Toe			L.Elbow			L.Wrist			R.Elbow			R.Wrist			
		X1	Y1	Z1	X2	Y2	Z2	X3	Y3	Z3	X4	Y4	Z4	X5	Y5	Z5	X6	Y6	Z6	X7	Y7	Z7	X8	Y8	Z8	X9	Y9	Z9	X10	Y10	Z10	X11	Y11	Z11	X12	Y12	Z12	X13	Y13	Z13	X14	Y14	Z14	X15	Y15	Z15	X16	Y16	Z16	X17	Y17	Z17	X18	Y18	Z18	X19	Y19	Z19	X20	Y20	Z20	X21	Y21	Z21	X22	Y22	Z22	X23	Y23	Z23	X24	Y24	Z24	X25	Y25	Z25	X26	Y26	Z26	X27	Y27	Z27	X28	Y28	Z28	X29	Y29	Z29	X30	Y30	Z30	X31	Y31	Z31	X32	Y32	Z32	X33	Y33	Z33	

18	37.150357142857	823.579003162578	1009.632759799113	549.076207866222	1020.834703998784	1424.072889032833	351.288507850014	1130.840092539575	1343.448048337931	502.103060343729	1072.725415935441	1425.575724865586	680.516401226260	1048.828572268472	1482.380794846547	505.981827990703	1051.551458431273	942.943398076375	658.163208730375	1027.112256387251	944.354899526449	381.089391173743	1048.412515150913	730.906089930130	637.178454366546	942.101113267656	637.520447448275	696.468897439319	1004.440458236323	572.405034067226	618.616383363596	987.549408661042	489.683272446623	623.372893480076	1103.971753633748	780.780476385639	412.596131612058	1070.112036286101	654.205900920483	320.701572985576	1178.460737090112	600.933214218721	379.813906179522	1212.696803709064	539.430891952844	371.561410161125	1201.884220318637	467.491217843276	358.474815358202	1147.194812557762	334.342978090308	302.611619880579	1245.138026222326	241.562759681237	349.945120175819	954.494395311470	405.334557350412	627.184680797482	875.766286045020	303.518798142398	683.253747353819	918.559277840229	208.635253714691	618.357747260370	781.136981097905	43.464122758340	581.236161891421	954.573808669504	97.990627930542	615.338474898235	866.069189125484	36.497544587206	653.598630273732	1074.503539566069	42.632034435553	638.305098343005	1177.472450282931	56.771493926519	380.598953705347	1253.537944468269	65.536420461135	302.776637546491	1320.113139233844	146.332582852321	325.299186144292	1456.483391361152	121.180175829804	303.603579405325	832.984731071108	1130.331041666783	256.302786813163	766.065174410051	877.195427702075	268.119113696004	1223.692594566911	1128.025299352182	786.606026521942	1426.481558608126	1234.809751803565	682.094787675049	
19	37.162142857143	823.332369258034	1008.364822738194	546.446239583922	1019.436588589240	1423.000552894024	348.992401304079	1129.450698346022	1342.913801819064	500.072975079297	1070.537144244378	1424.771778154214	678.248341043415	1046.753006154115	1481.471355316543	503.792972227859	1050.827027727121	942.022217847932	656.719100111413	1027.698937001273	942.869603729641	379.536555255673	1046.383684362301	729.648162042307	636.078243831867	939.173313016337	637.038163291198	695.271168902629	1001.071846953876	571.288573560165	617.637951411771	983.414672320851	488.531293771292	622.388133097603	1104.207817747206	778.583116591055	411.558984867117	1069.205815044419	651.250158362621	320.843237311189	1177.548899637274	598.039847552523	379.540746966614	1211.076633638694	536.041663173534	372.014687933175	1199.689315001245	463.902993435501	359.217450768322	1143.650687191392	331.190123039974	304.081368770385	1240.592498127440	237.753871820258	351.765659065460	949.528516437407	404.436885582687	626.441276437071	869.864001212411	303.468855924122	682.721265468302	911.534862718162	208.082869565201	617.958393012991	772.819382066034	43.442083551199	581.247199171635	946.256336150065	97.901167983745	615.314167514839	857.709823940904	36.506680051161	653.726595124094	1066.153728595979	42.547922371389	638.350524173947	1170.975916609206	54.415819052297	383.310263068814	1246.899583824215	61.915321438579	305.286886970375	1314.704881414935	141.504639854011	327.583257096819	1450.459529791921	114.245781361073	305.605234379958	829.270844425913	1131.328207962918	255.040023795681	759.901624186867	878.747763295888	269.376001642676	1226.629250149614	1130.508792228715	782.033477611562	1421.677410353930	1247.425222476678	674.938044569197	
20	37.173928571429	823.231342861911	1006.956804058779	543.582583572599	1018.160579939713	1421.741828383744	346.434827031869	1128.133326009857	1342.326443984844	497.893395883140	1068.253196943603	1423.966235337731	675.767310256092	1044.720387723826	1480.476769941660	501.303714883016	1050.231505518634	940.926775229340	655.160460207015	1028.476386800956	941.317626446667	377.935751312513	1044.835606869378	728.286821984483	634.751274539401	936.884337087730	636.346579271260	693.822660828623	998.399711591067	570.009430074627	616.376488030601	979.946206697498	487.172449037763	621.038722947182	1104.747608000130	776.256862878730	410.469808833801	1068.544899037364	648.210913827752	321.118652699568	1176.836591771708	595.047519638195	379.490429020008	1209.455710082239	532.245209120068	372.739947832496	1197.155987031303	459.768959288938	360.203632019433	1139.027941972091	327.869507354027	305.676787746992	1234.255371457326	233.179472345353	353.899367612887	945.207395783463	403.289733747043	625.399981070418	864.546199821649	303.304521950249	682.029507846394	904.797996381640	207.361221601957	617.367226160874	764.520567699685	43.408892728441	581.250496880672	937.959098063173	97.790162221343	615.245718432062	849.364228846156	36.519991444487	653.842747773480	1057.813956142031	42.405767977522	638.404543416564	1161.495296452737	51.791776972583	385.990796435043	1237.436672251116	57.799021350913	307.892154049618	1306.843418750064	135.680852886321	330.339790967345	1441.871404819576	105.615972458133	308.224533711462	826.205343373761	1131.735019370822	253.569377120087	754.756668782859	879.641374762535	270.352466965960	1228.955723358167	1132.944924085763	777.875501063029	1416.286464542755	1258.740189184263	668.279119555823	
21	37.185714285714	823.253753079400	1005.449314455540	540.518189573369	1017.025133477780	1420.333235972870	343.624890517905	1126.906223243104	1341.700032677466	495.562207450949	1065.916327925055	1423.181036033896	673.077151638236	1042.765797265361	1479.420429885886	498.515966413241	1049.782279991419	939.679821474647	653.468681883195	1029.392375063096	939.736626261236	376.272638283548	1043.740512098827	726.824498859768	633.199457358323	935.167751744612	635.460476381967	692.123011891474	996.349085734838	568.571355181398	614.843177958793	977.062055209334	485.615006589141	619.336102736555	1105.509509035772	773.817652574598	409.324105765378	1068.053053065864	645.162381828007	321.461176519937	1176.230171915654	591.995373617221	379.652840844944	1207.748211570456	528.147435488986	373.717949853978	1194.308326886053	455.249624178759	361.371367577463	1133.578012580395	324.455395203311	307.312272231141	1226.532050880616	228.081327526198	356.263197836939	941.454808182061	401.909535878828	624.059080332777	859.736176823080	303.040995621608	681.179837528670	898.305572882534	206.497603169294	616.597828648041	756.240469586679	43.372615069490	581.244853130213	929.686267946021	97.668068862104	615.135199292665	841.035188854352	36.538295962988	653.936986184903	1049.488384263274	42.210448374857	638.469684532441	1149.728931575381	49.036118135378	388.541616172616	1225.844107550548	53.438660477609	310.496772185841	1297.079183433140	129.224896225822	333.483192476383	1431.322788069005	95.879010789811	311.393396310975	823.796249445340	1131.570841780750	251.856179051325	750.671358950371	879.876495894137	270.990413903270	1230.655321935948	1135.271441428890	774.215368385087	1410.424280432451	1268.748064720692	662.165290858010	
